<svg width="2048" height="2048" version="1.1" xmlns="http://www.w3.org/2000/svg" desc="Created with imagetracer.js version 1.2.6" ><path fill="rgb(0,0,0)" stroke="rgb(0,0,0)" stroke-width="1" opacity="0.9372549019607843" d="M 1018.5 249 L 1032.5 249 L 1033.5 250 L 1047.5 251 L 1072.5 258 L 1092.5 267 L 1103.5 274 L 1130 297.5 Q 1141 310 1149 325.5 L 1155 341.5 L 1161 375.5 L 1161 391.5 L 1160 394.5 L 1159 409.5 L 1153 427.5 L 1141 448.5 L 1124.5 466 L 1117 471 L 1117 486.5 L 1115 496.5 L 1110 507 Q 1106 505.6 1108 512.5 L 1111 526.5 L 1114 560.5 L 1115 561.5 L 1116 589.5 L 1117 590.5 L 1117 621.5 L 1118 622.5 L 1118 630.5 L 1117 633.5 L 1117 675.5 L 1116 676.5 L 1116 688.5 L 1115 689.5 L 1114 709.5 L 1112 719.5 L 1111 740.5 L 1109 748.5 L 1109 756.5 L 1106 768.5 L 1106 774.5 L 1101 797 L 1178.5 810 L 1186.5 813 L 1191.5 813 L 1200.5 816 L 1226.5 821 L 1264.5 832 L 1273.5 833 L 1292.5 838 L 1323.5 849 L 1343.5 854 L 1349.5 858 L 1377.5 868 L 1397.5 879 L 1403 883.5 L 1412 909.5 L 1413 931.5 Q 1404.4 960.4 1384.5 978 L 1381.5 980 Q 1364.6 999.1 1338.5 1009 L 1331 1000 L 1327 997.5 L 1324.5 994 L 1322 992.5 Q 1322.8 990.3 1320.5 991 L 1295.5 971 L 1274.5 960 L 1271.5 960 L 1258.5 954 L 1254.5 954 L 1250.5 952 L 1231.5 948 L 1217.5 947 L 1210.5 945 L 1188.5 945 L 1187.5 946 L 1169.5 947 L 1158.5 950 L 1153.5 950 L 1139.5 954 L 1136 956.5 L 1136 962.5 L 1135 963.5 L 1129 1009.5 L 1128 1010.5 L 1126 1035.5 L 1125 1036.5 L 1125 1042.5 L 1124 1043.5 L 1124 1049.5 L 1123 1050.5 L 1123 1056.5 L 1118 1085.5 L 1118 1092.5 L 1115 1109.5 L 1115 1118.5 L 1111 1140.5 L 1111 1148.5 L 1109 1155.5 L 1108 1171.5 L 1106 1178.5 L 1106 1187.5 L 1103 1200.5 L 1103 1209.5 L 1101 1215.5 L 1101 1223.5 L 1096 1249.5 L 1097 1253.5 L 1096 1254.5 L 1096 1264.5 L 1094 1272.5 L 1095 1274.5 L 1091 1292.5 L 1091 1302.5 L 1088 1314.5 L 1088 1323.5 L 1082 1357.5 L 1082 1368.5 L 1076 1398.5 L 1076 1406.5 L 1075 1407.5 L 1073 1427.5 L 1070 1441.5 L 1069 1456.5 L 1067 1464.5 L 1067 1473.5 L 1066 1474.5 L 1066 1482.5 L 1063 1495.5 L 1062 1509.5 L 1060 1516.5 L 1060 1524.5 L 1058 1528.5 L 1057 1549.5 L 1055 1552.5 L 1055 1560.5 L 1052 1574.5 L 1052 1582.5 L 1049 1596.5 L 1049 1604.5 L 1047 1608.5 L 1046 1620.5 L 1042 1638.5 L 1040 1641.5 L 1040 1645.5 L 1032 1668.5 L 1029 1681.5 L 1023.5 1694 L 1022 1686.5 L 1019 1681.5 L 1009 1649.5 L 1003 1626.5 L 1003 1621.5 L 1001 1617.5 L 998 1589.5 L 995 1575.5 L 993 1551.5 L 990 1538.5 L 990 1529.5 L 989 1528.5 L 988 1515.5 L 985 1501.5 L 985 1493.5 L 981 1472.5 L 975 1416.5 L 973 1411.5 L 972 1395.5 L 970 1388.5 L 967 1362.5 L 965 1356.5 L 963 1330.5 L 961 1323.5 L 961 1313.5 L 958 1301.5 L 958 1292.5 L 954 1273.5 L 954 1264.5 L 951 1251.5 L 951 1242.5 L 949 1238.5 Q 950.5 1233 948 1231.5 L 948 1223.5 L 945 1207.5 L 945 1199.5 L 943 1191.5 L 940 1159.5 L 938 1153.5 L 938 1143.5 L 936 1139.5 L 936 1131.5 L 933 1116.5 L 933 1108.5 L 932 1107.5 L 931 1091.5 L 929 1084.5 L 927 1061.5 L 925 1054.5 L 925 1047.5 L 923 1042.5 L 921 1015.5 L 919 1008.5 L 919 1001.5 L 917 994.5 L 912 955 L 898.5 951 L 893.5 951 L 878.5 947 L 855.5 946 L 854.5 945 L 833.5 945 L 827.5 947 L 820.5 947 L 809.5 950 L 804.5 950 L 775.5 959 L 750.5 972 L 729 988.5 L 709.5 1009 L 695.5 1003 L 669 983 L 667.5 980 L 664.5 978 Q 649.6 962.4 639 942.5 L 636 934.5 L 636 916.5 L 642 892.5 L 649.5 880 L 668.5 869 L 692.5 859 L 695.5 859 L 711.5 852 L 764.5 835 L 768.5 835 L 787.5 829 L 791.5 829 L 800.5 826 L 805.5 826 L 808.5 824 L 838.5 818 L 851.5 814 L 872.5 811 L 893.5 805 L 900.5 805 L 904.5 803 L 911.5 803 L 917.5 801 L 923.5 801 L 924.5 800 L 930.5 800 L 936.5 798 L 948 797 Q 945 790.3 945 779.5 L 943 775.5 L 943 768.5 L 941 763.5 L 941 755.5 L 939 748.5 L 936 711.5 L 934 701.5 L 933 674.5 L 932 673.5 L 932 596.5 L 933 595.5 L 933 576.5 L 934 575.5 L 935 554.5 L 936 553.5 L 938 529.5 L 941 515.5 L 941 507.5 L 936 498.5 L 933 485.5 L 933 483.5 L 933 471.5 L 929.5 468 L 918 457.5 L 916 454.5 Q 888.3 428.2 891 371.5 L 892 370.5 L 894 353.5 L 899 334.5 L 908 315.5 L 922 296 Q 924.7 297.1 924 294.5 Q 939.6 277.6 960.5 266 L 988.5 254 L 1009.5 250 L 1017.5 250 L 1018.5 249 Z M 1021 300 L 1020 301 L 1003 302 L 985 307 L 968 315 L 947 329 Q 933 341 924 357 L 918 373 L 915 390 Q 918 393 916 401 L 921 421 Q 927 434 937 445 L 955 460 L 976 472 L 1002 480 L 1016 481 L 1017 482 L 1032 482 L 1033 481 L 1048 480 L 1070 474 L 1094 462 L 1103 455 L 1120 438 L 1129 424 L 1133 413 L 1136 397 L 1136 386 L 1132 369 Q 1126 351 1114 339 Q 1096 320 1071 309 L 1048 302 L 1021 300 Z M 958 487 L 957 492 L 962 500 L 982 512 L 1000 518 L 1013 519 L 1014 520 L 1038 520 L 1055 517 L 1072 511 L 1087 501 Q 1092 496 1093 488 L 1071 497 L 1043 503 L 1010 503 Q 1008 500 1002 502 L 971 494 L 958 487 Z M 963 526 L 960 546 L 979 540 L 984 537 L 985 534 Q 972 532 963 526 Z M 1086 526 L 1074 532 L 1061 536 L 1037 539 L 1036 540 L 1021 540 L 1020 539 L 1011 540 L 985 556 L 958 565 L 958 572 L 957 573 L 957 587 L 955 598 L 955 613 L 983 605 L 1002 596 L 1029 580 L 1041 571 L 1043 571 L 1060 558 Q 1076 546 1086 528 L 1086 526 Z M 1088 552 L 1085 558 Q 1060 584 1027 603 L 990 622 L 971 629 L 954 632 L 954 677 L 955 682 L 961 682 L 978 678 L 998 670 L 1008 664 L 1013 663 L 1041 646 L 1061 631 Q 1080 616 1093 595 L 1092 568 L 1090 559 Q 1092 551 1088 552 Z M 1094 621 L 1091 626 L 1064 651 L 1027 676 L 994 692 L 974 698 L 955 701 L 956 706 L 958 737 L 959 738 L 959 748 L 961 749 L 979 747 L 987 743 L 998 740 L 1023 728 L 1026 725 L 1040 718 L 1071 694 L 1072 691 L 1078 687 Q 1077 684 1080 685 L 1095 665 L 1095 623 L 1094 621 Z M 1093 694 L 1089 699 Q 1074 714 1057 727 L 1023 747 L 993 761 L 971 766 L 962 766 L 963 786 L 965 792 L 965 799 Q 968 803 967 810 L 988 807 L 1004 802 L 1033 787 Q 1051 776 1067 762 Q 1081 749 1091 732 L 1092 715 L 1093 714 L 1093 697 L 1094 696 Q 1095 693 1093 694 Z M 1088 762 L 1083 768 Q 1065 787 1042 800 Q 1039 799 1040 802 L 1017 814 L 1002 820 L 984 824 L 970 825 L 973 842 Q 981 850 993 855 L 996 856 L 1012 851 L 1014 849 L 1017 849 L 1032 842 L 1051 830 L 1063 819 L 1066 817 L 1067 815 L 1070 813 L 1083 795 L 1083 791 L 1086 782 L 1087 766 L 1088 765 L 1088 762 Z M 1079 824 L 1056 845 L 1029 860 Q 1026 859 1027 862 L 1040 861 L 1052 858 L 1075 843 L 1079 826 L 1079 824 Z M 1087 852 L 1082 859 Q 1079 858 1080 861 L 1060 873 L 1048 877 L 1037 878 L 1036 879 L 1019 879 L 1018 878 L 1007 878 L 999 876 L 980 868 L 973 863 Q 970 864 971 862 L 968 859 L 966 857 L 961 853 Q 961 864 967 872 Q 976 883 991 889 L 1006 893 L 1022 894 L 1023 895 L 1038 894 L 1056 890 L 1066 885 L 1078 876 Q 1084 870 1087 860 L 1087 852 Z M 849 894 L 848 895 L 820 895 L 809 897 L 800 897 L 734 909 L 710 916 L 707 918 L 703 918 L 686 925 L 683 925 L 658 936 Q 666 951 678 963 Q 677 965 680 964 L 682 968 L 706 985 L 735 960 L 762 944 L 775 938 L 810 928 L 827 926 L 828 925 L 843 925 L 844 924 L 865 924 L 866 925 L 883 926 L 922 936 L 958 954 L 983 973 Q 985 972 984 975 L 987 976 L 1023 1015 Q 1022 1017 1025 1016 L 1038 1000 Q 1070 963 1116 941 L 1131 935 L 1156 928 L 1173 925 L 1192 925 Q 1193 923 1198 924 L 1200 924 L 1201 925 L 1220 925 L 1221 926 L 1240 928 L 1274 938 L 1307 955 L 1331 973 L 1333 977 L 1337 979 L 1339 983 L 1343 985 L 1355 977 Q 1357 978 1356 975 L 1370 965 Q 1382 953 1390 937 L 1368 926 L 1322 911 L 1268 900 L 1247 898 L 1246 897 L 1238 897 L 1237 896 L 1228 896 L 1227 895 L 1176 895 L 1175 896 L 1137 899 L 1082 909 L 1027 925 L 1022 925 L 1018 923 L 1007 921 L 968 909 L 953 907 L 948 905 L 941 905 L 937 903 L 925 902 L 915 899 L 896 898 L 886 896 L 875 896 L 874 895 L 853 895 L 851 895 L 849 894 Z M 935 966 L 936 970 L 937 985 L 938 986 L 938 993 L 939 994 L 939 1001 L 940 1002 L 940 1013 L 941 1014 L 943 1039 L 944 1040 L 944 1048 L 945 1049 L 945 1059 L 947 1069 L 948 1087 L 951 1103 L 952 1120 L 953 1121 L 954 1139 L 956 1147 L 956 1157 L 958 1166 L 959 1186 L 961 1195 L 961 1204 L 963 1213 L 965 1238 L 966 1239 L 966 1249 L 968 1257 L 969 1277 L 973 1299 L 973 1309 L 976 1323 L 978 1354 L 980 1362 L 980 1372 L 982 1380 L 983 1395 L 984 1396 L 986 1420 L 988 1428 L 989 1445 L 990 1446 L 990 1459 L 991 1460 L 993 1484 L 994 1485 L 994 1495 L 996 1501 L 996 1509 L 997 1510 L 1001 1552 L 1002 1553 L 1002 1563 L 1004 1572 L 1004 1582 L 1006 1590 L 1006 1598 L 1011 1621 L 1011 1626 L 1024 1671 L 1025 1670 L 1026 1663 L 1031 1649 L 1031 1645 L 1035 1634 L 1042 1597 L 1045 1561 L 1047 1553 L 1047 1545 L 1050 1529 L 1051 1513 L 1052 1512 L 1052 1503 L 1054 1495 L 1055 1479 L 1056 1478 L 1056 1465 L 1058 1457 L 1058 1448 L 1059 1447 L 1061 1425 L 1062 1424 L 1062 1416 L 1065 1399 L 1065 1392 L 1066 1391 L 1066 1383 L 1067 1382 L 1067 1374 L 1068 1373 L 1068 1362 L 1069 1361 L 1071 1335 L 1072 1334 L 1072 1326 L 1073 1325 L 1073 1316 L 1075 1310 L 1077 1287 L 1079 1279 L 1081 1247 L 1082 1246 L 1085 1215 L 1086 1214 L 1086 1204 L 1088 1196 L 1088 1185 L 1090 1178 L 1091 1158 L 1093 1149 L 1093 1139 L 1096 1123 L 1098 1095 L 1100 1087 L 1103 1052 L 1104 1051 L 1104 1040 L 1107 1024 L 1107 1015 L 1108 1014 L 1111 982 L 1113 975 L 1113 966 Q 1094 975 1079 988 L 1077 991 L 1072 995 L 1069 997 Q 1049 1014 1034 1037 L 1033 1123 L 1032 1124 L 1032 1181 L 1031 1182 L 1031 1237 L 1030 1238 L 1029 1376 L 1028 1377 L 1028 1423 L 1027 1424 L 1027 1487 L 1026 1488 L 1026 1560 L 1025 1561 L 1026 1563 L 1025 1565 Q 1027 1572 1023 1571 L 1023 1559 L 1022 1558 L 1022 1493 L 1021 1492 L 1020 1378 L 1020 1376 L 1019 1374 L 1020 1372 L 1019 1371 L 1019 1299 L 1018 1298 L 1018 1225 L 1017 1224 L 1015 1048 L 1014 1047 L 1014 1036 L 1013 1034 L 990 1006 L 989 1006 L 978 995 Q 975 996 976 994 Q 958 976 935 966 Z " /><path fill="rgb(0,0,0)" stroke="rgb(0,0,0)" stroke-width="1" opacity="0" d="M 0 0 L 2048 0 L 2048 2048 L 0 2048 L 0 0 Z M 1019 249 L 1018 250 L 1010 250 L 989 254 L 961 266 Q 940 278 924 295 Q 925 297 922 296 L 908 316 L 899 335 L 894 354 L 892 371 L 891 372 Q 888 428 916 455 L 918 458 L 930 468 L 933 472 L 933 484 L 933 486 L 936 499 L 941 508 L 941 516 L 938 530 L 936 554 L 935 555 L 934 576 L 933 577 L 933 596 L 932 597 L 932 674 L 933 675 L 934 702 L 936 712 L 939 749 L 941 756 L 941 764 L 943 769 L 943 776 L 945 780 Q 945 790 948 797 L 937 798 L 931 800 L 925 800 L 924 801 L 918 801 L 912 803 L 905 803 L 901 805 L 894 805 L 873 811 L 852 814 L 839 818 L 809 824 L 806 826 L 801 826 L 792 829 L 788 829 L 769 835 L 765 835 L 712 852 L 696 859 L 693 859 L 669 869 L 650 880 L 642 893 L 636 917 L 636 935 L 639 943 Q 650 962 665 978 L 668 980 L 669 983 L 696 1003 L 710 1009 L 729 989 L 751 972 L 776 959 L 805 950 L 810 950 L 821 947 L 828 947 L 834 945 L 855 945 L 856 946 L 879 947 L 894 951 L 899 951 L 912 955 L 917 995 L 919 1002 L 919 1009 L 921 1016 L 923 1043 L 925 1048 L 925 1055 L 927 1062 L 929 1085 L 931 1092 L 932 1108 L 933 1109 L 933 1117 L 936 1132 L 936 1140 L 938 1144 L 938 1154 L 940 1160 L 943 1192 L 945 1200 L 945 1208 L 948 1224 L 948 1232 Q 951 1233 949 1239 L 951 1243 L 951 1252 L 954 1265 L 954 1274 L 958 1293 L 958 1302 L 961 1314 L 961 1324 L 963 1331 L 965 1357 L 967 1363 L 970 1389 L 972 1396 L 973 1412 L 975 1417 L 981 1473 L 985 1494 L 985 1502 L 988 1516 L 989 1529 L 990 1530 L 990 1539 L 993 1552 L 995 1576 L 998 1590 L 1001 1618 L 1003 1622 L 1003 1627 L 1009 1650 L 1019 1682 L 1022 1687 L 1024 1694 L 1029 1682 L 1032 1669 L 1040 1646 L 1040 1642 L 1042 1639 L 1046 1621 L 1047 1609 L 1049 1605 L 1049 1597 L 1052 1583 L 1052 1575 L 1055 1561 L 1055 1553 L 1057 1550 L 1058 1529 L 1060 1525 L 1060 1517 L 1062 1510 L 1063 1496 L 1066 1483 L 1066 1475 L 1067 1474 L 1067 1465 L 1069 1457 L 1070 1442 L 1073 1428 L 1075 1408 L 1076 1407 L 1076 1399 L 1082 1369 L 1082 1358 L 1088 1324 L 1088 1315 L 1091 1303 L 1091 1293 L 1095 1275 L 1094 1273 L 1096 1265 L 1096 1255 L 1097 1254 L 1096 1250 L 1101 1224 L 1101 1216 L 1103 1210 L 1103 1201 L 1106 1188 L 1106 1179 L 1108 1172 L 1109 1156 L 1111 1149 L 1111 1141 L 1115 1119 L 1115 1110 L 1118 1093 L 1118 1086 L 1123 1057 L 1123 1051 L 1124 1050 L 1124 1044 L 1125 1043 L 1125 1037 L 1126 1036 L 1128 1011 L 1129 1010 L 1135 964 L 1136 963 L 1136 957 L 1140 954 L 1154 950 L 1159 950 L 1170 947 L 1188 946 L 1189 945 L 1211 945 L 1218 947 L 1232 948 L 1251 952 L 1255 954 L 1259 954 L 1272 960 L 1275 960 L 1296 971 L 1321 991 Q 1323 990 1322 993 L 1325 994 L 1327 998 L 1331 1000 L 1339 1009 Q 1365 999 1382 980 L 1385 978 Q 1404 960 1413 932 L 1412 910 L 1403 884 L 1398 879 L 1378 868 L 1350 858 L 1344 854 L 1324 849 L 1293 838 L 1274 833 L 1265 832 L 1227 821 L 1201 816 L 1192 813 L 1187 813 L 1179 810 L 1101 797 L 1106 775 L 1106 769 L 1109 757 L 1109 749 L 1111 741 L 1112 720 L 1114 710 L 1115 690 L 1116 689 L 1116 677 L 1117 676 L 1117 634 L 1118 631 L 1118 623 L 1117 622 L 1117 591 L 1116 590 L 1115 562 L 1114 561 L 1111 527 L 1108 513 Q 1106 506 1110 507 L 1115 497 L 1117 487 L 1117 471 L 1125 466 L 1141 449 L 1153 428 L 1159 410 L 1160 395 L 1161 392 L 1161 376 L 1155 342 L 1149 326 Q 1141 310 1130 298 L 1104 274 L 1093 267 L 1073 258 L 1048 251 L 1034 250 L 1033 249 L 1019 249 Z " /><path fill="rgb(0,0,0)" stroke="rgb(0,0,0)" stroke-width="1" opacity="0" d="M 1020.5 300 L 1047.5 302 L 1070.5 309 Q 1096 320 1114 338.5 Q 1125.7 350.8 1132 368.5 L 1136 385.5 L 1136 396.5 L 1133 412.5 L 1129 423.5 L 1120 437.5 L 1102.5 455 L 1093.5 462 L 1069.5 474 L 1047.5 480 L 1032.5 481 L 1031.5 482 L 1016.5 482 L 1015.5 481 L 1001.5 480 L 975.5 472 L 954.5 460 L 937 444.5 Q 927.4 434.1 921 420.5 L 916 400.5 Q 917.5 393 915 389.5 L 918 372.5 L 924 356.5 Q 933.1 340.6 946.5 329 L 967.5 315 L 984.5 307 L 1002.5 302 L 1019.5 301 L 1020.5 300 Z " /><path fill="rgb(0,0,0)" stroke="rgb(0,0,0)" stroke-width="1" opacity="0" d="M 957.5 487 L 970.5 494 L 1001.5 502 Q 1007.7 500.3 1009.5 503 L 1042.5 503 L 1070.5 497 L 1093 488 Q 1091.6 496 1086.5 501 L 1071.5 511 L 1054.5 517 L 1037.5 520 L 1013.5 520 L 1012.5 519 L 999.5 518 L 981.5 512 L 962 500 L 957 491.5 L 957.5 487 Z " /><path fill="rgb(0,0,0)" stroke="rgb(0,0,0)" stroke-width="1" opacity="0" d="M 963 526 Q 972.5 531.8 985 534 L 983.5 537 L 978.5 540 L 960 546 L 963 526 Z " /><path fill="rgb(0,0,0)" stroke="rgb(0,0,0)" stroke-width="1" opacity="0" d="M 1085.5 526 L 1086 527.5 Q 1075.6 545.6 1059.5 558 L 1042.5 571 L 1040.5 571 L 1028.5 580 L 1001.5 596 L 982.5 605 L 955 613 L 955 597.5 L 957 586.5 L 957 572.5 L 958 571.5 L 958 565 L 984.5 556 L 1010.5 540 L 1019.5 539 L 1020.5 540 L 1035.5 540 L 1036.5 539 L 1060.5 536 L 1073.5 532 L 1085.5 526 Z " /><path fill="rgb(0,0,0)" stroke="rgb(0,0,0)" stroke-width="1" opacity="0" d="M 1088 552 Q 1091.5 550.9 1090 558.5 L 1092 567.5 L 1093 594.5 Q 1079.6 615.6 1060.5 631 L 1040.5 646 L 1012.5 663 L 1007.5 664 L 997.5 670 L 977.5 678 L 960.5 682 L 955 682 L 954 676.5 L 954 632 L 970.5 629 L 989.5 622 L 1026.5 603 Q 1059.6 584.1 1085 557.5 L 1088 552 Z " /><path fill="rgb(0,0,0)" stroke="rgb(0,0,0)" stroke-width="1" opacity="0" d="M 1093.5 621 L 1095 622.5 L 1095 664.5 L 1079.5 685 Q 1077.3 684.3 1078 686.5 L 1072 691 L 1070.5 694 L 1039.5 718 L 1025.5 725 L 1022.5 728 L 997.5 740 L 986.5 743 L 978.5 747 L 960.5 749 L 959 747.5 L 959 737.5 L 958 736.5 L 956 705.5 L 955 701 L 973.5 698 L 993.5 692 L 1026.5 676 L 1063.5 651 L 1091 625.5 L 1093.5 621 Z " /><path fill="rgb(0,0,0)" stroke="rgb(0,0,0)" stroke-width="1" opacity="0" d="M 1092.5 694 Q 1094.8 693.3 1094 695.5 L 1093 696.5 L 1093 713.5 L 1092 714.5 L 1091 731.5 Q 1081.3 749.3 1066.5 762 Q 1051.2 776.2 1032.5 787 L 1003.5 802 L 987.5 807 L 967 810 Q 968 802.8 965 798.5 L 965 791.5 L 963 785.5 L 962 766 L 970.5 766 L 992.5 761 L 1022.5 747 L 1056.5 727 Q 1074.4 714.4 1089 698.5 L 1092.5 694 Z " /><path fill="rgb(0,0,0)" stroke="rgb(0,0,0)" stroke-width="1" opacity="0" d="M 1087.5 762 L 1088 764.5 L 1087 765.5 L 1086 781.5 L 1083 790.5 L 1083 794.5 L 1069.5 813 L 1067 814.5 L 1065.5 817 L 1062.5 819 L 1050.5 830 L 1031.5 842 L 1016.5 849 L 1013.5 849 L 1011.5 851 L 995.5 856 L 992.5 855 Q 980.8 850.2 973 841.5 L 970 825 L 983.5 824 L 1001.5 820 L 1016.5 814 L 1040 802 Q 1038.9 799.3 1041.5 800 Q 1065.3 786.8 1083 767.5 L 1087.5 762 Z " /><path fill="rgb(0,0,0)" stroke="rgb(0,0,0)" stroke-width="1" opacity="0" d="M 1078.5 824 L 1079 825.5 L 1075 843 L 1051.5 858 L 1039.5 861 L 1027 862 Q 1025.9 859.3 1028.5 860 L 1055.5 845 L 1078.5 824 Z " /><path fill="rgb(0,0,0)" stroke="rgb(0,0,0)" stroke-width="1" opacity="0" d="M 1086.5 852 L 1087 859.5 Q 1084.5 870 1077.5 876 L 1065.5 885 L 1055.5 890 L 1037.5 894 L 1022.5 895 L 1021.5 894 L 1005.5 893 L 990.5 889 Q 975.7 883.3 967 871.5 Q 961.5 864.1 961 853 L 966 856.5 L 967.5 859 L 971 861.5 Q 970.3 863.8 972.5 863 L 979.5 868 L 998.5 876 L 1006.5 878 L 1017.5 878 L 1018.5 879 L 1035.5 879 L 1036.5 878 L 1047.5 877 L 1059.5 873 L 1080 860.5 Q 1079.3 858.3 1081.5 859 L 1086.5 852 Z " /><path fill="rgb(0,0,0)" stroke="rgb(0,0,0)" stroke-width="1" opacity="0" d="M 848.5 894 L 850.5 895 L 852.5 895 L 873.5 895 L 874.5 896 L 885.5 896 L 895.5 898 L 914.5 899 L 924.5 902 L 936.5 903 L 940.5 905 L 947.5 905 L 952.5 907 L 967.5 909 L 1006.5 921 L 1017.5 923 L 1021.5 925 L 1026.5 925 L 1081.5 909 L 1136.5 899 L 1174.5 896 L 1175.5 895 L 1226.5 895 L 1227.5 896 L 1236.5 896 L 1237.5 897 L 1245.5 897 L 1246.5 898 L 1267.5 900 L 1321.5 911 L 1367.5 926 L 1390 936.5 Q 1382.4 953.4 1369.5 965 L 1356 975 Q 1357.1 977.7 1354.5 977 L 1342.5 985 L 1339 982.5 L 1336.5 979 L 1333 976.5 L 1330.5 973 L 1306.5 955 L 1273.5 938 L 1239.5 928 L 1220.5 926 L 1219.5 925 L 1200.5 925 L 1199.5 924 L 1197.5 924 Q 1192.8 922.7 1191.5 925 L 1172.5 925 L 1155.5 928 L 1130.5 935 L 1115.5 941 Q 1069.7 963.2 1038 999.5 L 1024.5 1016 Q 1022.3 1016.8 1023 1014.5 L 986.5 976 L 984 974.5 Q 984.8 972.3 982.5 973 L 957.5 954 L 921.5 936 L 882.5 926 L 865.5 925 L 864.5 924 L 843.5 924 L 842.5 925 L 827.5 925 L 826.5 926 L 809.5 928 L 774.5 938 L 761.5 944 L 734.5 960 L 705.5 985 L 682 968 L 679.5 964 Q 677.3 964.8 678 962.5 Q 665.6 951.4 658 935.5 L 682.5 925 L 685.5 925 L 702.5 918 L 706.5 918 L 709.5 916 L 733.5 909 L 799.5 897 L 808.5 897 L 819.5 895 L 847.5 895 L 848.5 894 Z " /><path fill="rgb(0,0,0)" stroke="rgb(0,0,0)" stroke-width="1" opacity="0" d="M 935 966 Q 958.5 976.2 976 993.5 Q 975.3 995.8 977.5 995 L 988.5 1006 L 990 1006 L 1013 1033.5 L 1014 1035.5 L 1014 1046.5 L 1015 1047.5 L 1017 1223.5 L 1018 1224.5 L 1018 1297.5 L 1019 1298.5 L 1019 1370.5 L 1020 1371.5 L 1019 1373.5 L 1020 1375.5 L 1020 1377.5 L 1021 1491.5 L 1022 1492.5 L 1022 1557.5 L 1023 1558.5 L 1023 1571 Q 1026.5 1572.1 1025 1564.5 L 1026 1562.5 L 1025 1560.5 L 1026 1559.5 L 1026 1487.5 L 1027 1486.5 L 1027 1423.5 L 1028 1422.5 L 1028 1376.5 L 1029 1375.5 L 1030 1237.5 L 1031 1236.5 L 1031 1181.5 L 1032 1180.5 L 1032 1123.5 L 1033 1122.5 L 1034 1036.5 Q 1048.6 1014.1 1068.5 997 L 1071.5 995 L 1077 991 L 1078.5 988 Q 1094.2 974.9 1113 966 L 1113 974.5 L 1111 981.5 L 1108 1013.5 L 1107 1014.5 L 1107 1023.5 L 1104 1039.5 L 1104 1050.5 L 1103 1051.5 L 1100 1086.5 L 1098 1094.5 L 1096 1122.5 L 1093 1138.5 L 1093 1148.5 L 1091 1157.5 L 1090 1177.5 L 1088 1184.5 L 1088 1195.5 L 1086 1203.5 L 1086 1213.5 L 1085 1214.5 L 1082 1245.5 L 1081 1246.5 L 1079 1278.5 L 1077 1286.5 L 1075 1309.5 L 1073 1315.5 L 1073 1324.5 L 1072 1325.5 L 1072 1333.5 L 1071 1334.5 L 1069 1360.5 L 1068 1361.5 L 1068 1372.5 L 1067 1373.5 L 1067 1381.5 L 1066 1382.5 L 1066 1390.5 L 1065 1391.5 L 1065 1398.5 L 1062 1415.5 L 1062 1423.5 L 1061 1424.5 L 1059 1446.5 L 1058 1447.5 L 1058 1456.5 L 1056 1464.5 L 1056 1477.5 L 1055 1478.5 L 1054 1494.5 L 1052 1502.5 L 1052 1511.5 L 1051 1512.5 L 1050 1528.5 L 1047 1544.5 L 1047 1552.5 L 1045 1560.5 L 1042 1596.5 L 1035 1633.5 L 1031 1644.5 L 1031 1648.5 L 1026 1662.5 L 1025 1669.5 L 1023.5 1671 L 1011 1625.5 L 1011 1620.5 L 1006 1597.5 L 1006 1589.5 L 1004 1581.5 L 1004 1571.5 L 1002 1562.5 L 1002 1552.5 L 1001 1551.5 L 997 1509.5 L 996 1508.5 L 996 1500.5 L 994 1494.5 L 994 1484.5 L 993 1483.5 L 991 1459.5 L 990 1458.5 L 990 1445.5 L 989 1444.5 L 988 1427.5 L 986 1419.5 L 984 1395.5 L 983 1394.5 L 982 1379.5 L 980 1371.5 L 980 1361.5 L 978 1353.5 L 976 1322.5 L 973 1308.5 L 973 1298.5 L 969 1276.5 L 968 1256.5 L 966 1248.5 L 966 1238.5 L 965 1237.5 L 963 1212.5 L 961 1203.5 L 961 1194.5 L 959 1185.5 L 958 1165.5 L 956 1156.5 L 956 1146.5 L 954 1138.5 L 953 1120.5 L 952 1119.5 L 951 1102.5 L 948 1086.5 L 947 1068.5 L 945 1058.5 L 945 1048.5 L 944 1047.5 L 944 1039.5 L 943 1038.5 L 941 1013.5 L 940 1012.5 L 940 1001.5 L 939 1000.5 L 939 993.5 L 938 992.5 L 938 985.5 L 937 984.5 L 936 969.5 L 935 966 Z " /></svg>