<svg xmlns="http://www.w3.org/2000/svg" width="2048" height="2048" viewBox="0 0 2048 2048" version="1.1">
	<path d="M 1073.500 1337.266 L 1010.500 1373.299 961 1371.828 C 914.081 1370.435, 887.748 1370.578, 456 1374.567 C 205.475 1376.882, 0.388 1378.826, 0.250 1378.888 C 0.112 1378.950, -0 1529.525, -0 1713.500 L -0 2048.001 1024.250 2047.750 L 2048.500 2047.500 2048.500 1676.333 C 2048.500 1472.192, 2048.257 1304.923, 2047.960 1304.626 C 2047.663 1304.329, 1881.613 1303.626, 1678.960 1303.064 C 1476.307 1302.501, 1271.350 1301.859, 1223.500 1301.637 L 1136.500 1301.233 1073.500 1337.266 M 0.494 1713.500 C 0.494 1897.750, 0.609 1973.274, 0.750 1881.331 C 0.891 1789.388, 0.891 1638.638, 0.750 1546.331 C 0.609 1454.024, 0.494 1529.250, 0.494 1713.500" stroke="none" fill="currentColor" fill-rule="evenodd"/>
</svg>