<svg width="2048" height="2048" version="1.1" xmlns="http://www.w3.org/2000/svg" desc="Created with imagetracer.js version 1.2.6" ><path fill="rgb(0,0,0)" stroke="rgb(0,0,0)" stroke-width="1" opacity="0.9254901960784314" d="M 1476.5 1211 L 1479 1211.5 L 1304.5 1290 L 1268 1298.5 L 1295 1324.5 L 1312 1391.5 L 1311 1391.5 L 1290.5 1351 L 1223.5 1312 L 1217.5 1310 L 1070 1367 L 1020 1493 L 904 1521 L 876.5 1574 L 876 1569.5 L 884 1545.5 L 884 1541.5 L 887 1534.5 L 890 1520.5 L 892.5 1518 L 972.5 1476 L 976 1472.5 L 980 1451.5 L 990 1412.5 L 990 1408.5 L 993 1400.5 L 993 1396.5 L 991.5 1395 L 984.5 1395 L 983.5 1394 L 976.5 1394 L 975.5 1393 L 968.5 1393 L 967.5 1392 L 960.5 1392 L 959.5 1391 L 952.5 1391 L 951.5 1390 L 944.5 1390 L 943.5 1389 L 936.5 1389 L 935.5 1388 L 872.5 1381 L 864.5 1379 L 856.5 1379 L 655.5 1429 L 656.5 1427 L 882.5 1320 L 885.5 1317 L 886 1322.5 L 885 1323.5 L 884 1339 L 996.5 1357 L 1171.5 1289 L 1179.5 1284 L 1224 1244.5 L 1211 1232.5 L 1218.5 1232 L 1251.5 1238 L 1299.5 1244 L 1306.5 1246 L 1316.5 1246 L 1344.5 1239 L 1429.5 1222 L 1476.5 1211 Z " /><path fill="rgb(0,0,0)" stroke="rgb(0,0,0)" stroke-width="1" opacity="0" d="M 0 0 L 2048 0 L 2048 2048 L 0 2048 L 0 0 Z M 1477 1211 L 1430 1222 L 1345 1239 L 1317 1246 L 1307 1246 L 1300 1244 L 1252 1238 L 1219 1232 L 1211 1233 L 1224 1245 L 1180 1284 L 1172 1289 L 997 1357 L 884 1339 L 885 1324 L 886 1323 L 886 1317 L 883 1320 L 657 1427 L 656 1429 L 857 1379 L 865 1379 L 873 1381 L 936 1388 L 937 1389 L 944 1389 L 945 1390 L 952 1390 L 953 1391 L 960 1391 L 961 1392 L 968 1392 L 969 1393 L 976 1393 L 977 1394 L 984 1394 L 985 1395 L 992 1395 L 993 1397 L 993 1401 L 990 1409 L 990 1413 L 980 1452 L 976 1473 L 973 1476 L 893 1518 L 890 1521 L 887 1535 L 884 1542 L 884 1546 L 876 1570 L 877 1574 L 904 1521 L 1020 1493 L 1070 1367 L 1218 1310 L 1224 1312 L 1291 1351 L 1311 1392 L 1312 1392 L 1295 1325 L 1268 1299 L 1305 1290 L 1479 1212 L 1477 1211 Z " /></svg>